<svg xmlns="http://www.w3.org/2000/svg" width="24" height="24" viewBox="0 0 24 24"><ellipse cx="12" cy="12" rx="12" ry="12" transform="translate(24 0) rotate(90)" fill="#cdced9"/><path d="M5.579,18.4h0A9.618,9.618,0,0,1,0,9.663H7.542A2.089,2.089,0,0,0,8.7,11.534L5.579,18.4Zm8.058,0h0l-3.113-6.851a2.089,2.089,0,0,0,1.194-1.888h7.5a9.644,9.644,0,0,1-5.579,8.74ZM10.785,7.923h0a2.09,2.09,0,0,0-2.306,0L4.07,1.754a9.618,9.618,0,0,1,10.358-.462c.222.128.441.267.652.412Z" transform="translate(2.492 2.739)" fill="#fff"/></svg>