<svg id="_1_lab" data-name="1_lab" xmlns="http://www.w3.org/2000/svg" width="24" height="24" viewBox="0 0 24 24">
  <circle id="Ellipse_623" data-name="Ellipse 623" cx="12" cy="12" r="12" fill="#ada8ae"/>
  <path id="Union_87" data-name="Union 87" d="M11.259,15.381H.644a.642.642,0,0,1-.558-.962L4.666,6.4H7.231l4.586,8.017a.642.642,0,0,1-.555.962ZM2.14,13.553c-.174.244.045.545.4.545h6.9c.353,0,.578-.32.4-.545L7.864,9.892H4.016ZM4.666,6.4V1.481A.744.744,0,0,1,4.768,0h2.36a.744.744,0,0,1,.1,1.481V6.4Z" transform="translate(6.049 2.976)" fill="#fff"/>
</svg>
