<svg id="_1_Rad" data-name="1_Rad" xmlns="http://www.w3.org/2000/svg" width="24" height="24" viewBox="0 0 24 24">
  <circle id="Ellipse_944" data-name="Ellipse 944" cx="12" cy="12" r="12" fill="#ada8ae"/>
  <path id="Subtraction_372" data-name="Subtraction 372" d="M5.58,18.4h0A9.618,9.618,0,0,1,0,9.664H7.542A2.089,2.089,0,0,0,8.7,11.534Zm8.059,0h0l-3.113-6.852a2.089,2.089,0,0,0,1.2-1.888h7.5a9.644,9.644,0,0,1-5.58,8.74ZM10.786,7.923h0a2.09,2.09,0,0,0-2.306,0L4.07,1.754a9.618,9.618,0,0,1,10.359-.462c.222.128.442.267.652.412Z" transform="translate(2.4 2.4)" fill="#fafafa"/>
</svg>
