<svg id="Layer_1" data-name="Layer 1" xmlns="http://www.w3.org/2000/svg" viewBox="0 0 40 40"><defs><style>.cls-1{fill:#231f20;}.cls-2{fill:#1172f7;}.cls-3{fill:#fff;}</style></defs><title>Artboard 9</title><path class="cls-1" d="M27.91,19.25H16.77V14.62a3.23,3.23,0,1,1,6.46,0v.72a1.09,1.09,0,0,0,1.08,1.08h1.44a1.08,1.08,0,0,0,1.08-1.08v-.72a6.83,6.83,0,1,0-13.66.07v4.6H27.91Z"/><path class="cls-2" d="M27.91,19.25H12.09a2.31,2.31,0,0,0-2.15,2.44v8.12a2.31,2.31,0,0,0,2.15,2.44H27.91a2.31,2.31,0,0,0,2.15-2.44V21.69A2.31,2.31,0,0,0,27.91,19.25Z"/><circle class="cls-3" cx="20" cy="24.77" r="2"/><rect class="cls-3" x="19" y="25.54" width="2" height="4" rx="1"/></svg>