<svg width="150" height="150" viewBox="0 0 150 150" fill="none" xmlns="http://www.w3.org/2000/svg">
<path d="M0 8C0 3.58172 3.58172 0 8 0H142C146.418 0 150 3.58172 150 8V142C150 146.418 146.418 150 142 150H8C3.58172 150 0 146.418 0 142V8Z" fill="#C8CBFA"/>
<path d="M150 105.191V142C150 146.418 146.418 150 142 150H8C3.58172 150 0 146.418 0 142V73.7212C20.1882 63.205 50.1048 59.9706 76.5 86.7283C104.173 114.781 130.069 113.491 150 105.191Z" fill="#575FCF"/>
<path d="M133 40C133 51.0457 124.046 60 113 60C101.954 60 93 51.0457 93 40C93 28.9543 101.954 20 113 20C124.046 20 133 28.9543 133 40Z" fill="#575FCF"/>
</svg>
