<svg width="544" height="125" viewBox="0 0 544 125" fill="none" xmlns="http://www.w3.org/2000/svg">
<path d="M42.5522 55.0911V26.6678C42.5522 23.299 39.8406 18.6307 35.0024 18.6307C29.3168 18.6307 26.911 22.8176 26.911 26.4606L26.9014 54.6862L15.0117 54.8919L15.0226 27.4588C15.0229 24.8595 15.5438 22.2867 16.5547 19.892C17.5656 17.4974 19.046 15.3296 20.9084 13.5164C22.7709 11.7033 24.9777 10.2817 27.3986 9.3354C29.8195 8.38914 32.4054 7.93744 35.0037 8.00696C45.6469 8.2802 53.955 17.2859 53.955 27.9394V48.5143C53.9588 48.5167 53.9607 48.5192 53.9607 48.5216C53.9607 54.0637 59.6168 55.0914 60.2999 55.0914L42.5522 55.0911Z" fill="#1A2268"/>
<path d="M34.195 116.769C23.5515 116.496 15.2437 107.491 15.2437 96.837V76.2621C15.2407 76.2599 15.2391 76.2577 15.2391 76.2556C15.2393 70.7129 9.58357 69.6853 8.89993 69.6853H26.6473V76.255H26.6451V98.1086C26.6451 101.477 29.3562 106.146 34.195 106.146C39.8805 106.146 42.2864 101.959 42.2864 98.3157V69.8913L54.1763 69.6853V97.317C54.1763 99.8741 53.6722 102.406 52.693 104.768C51.7138 107.13 50.2786 109.276 48.4695 111.084C46.6604 112.891 44.5129 114.324 42.1497 115.3C39.7865 116.277 37.254 116.778 34.6969 116.776C34.5302 116.776 34.3629 116.774 34.195 116.769Z" fill="#4D9B35"/>
<path d="M15.0382 39.0324L26.8916 48.3326L26.8968 41.9429L15.0382 38.7102V39.0324Z" fill="#060B4D"/>
<path opacity="0.3" d="M54.1769 85.6585L42.308 76.3493V82.4089L54.1769 86.3044V85.6585Z" fill="#10216E"/>
<path d="M15.0131 54.8919L54.1788 85.6828V69.7364L15.0131 39.0137V54.8919Z" fill="url(#paint0_linear_2294_63151)"/>
<path d="M184.688 45.6456C184.688 50.8555 188.05 52.3693 192.503 52.4532C195.865 52.5371 199.058 51.2762 199.143 48.5028C199.227 44.8055 193.093 44.217 187.545 42.5353C181.998 40.939 177.04 38.585 177.04 31.6096C177.04 23.4586 184.771 20.0128 191.578 20.0128C199.14 20.0128 207.125 23.2908 206.873 33.0396H197.965C198.132 28.8376 195.023 27.4021 191.157 27.4021C188.972 27.4021 186.199 28.41 186.199 30.9317C185.947 34.4613 193.006 34.7982 198.721 36.5692C204.771 38.4186 208.218 41.8643 208.218 47.3258C208.218 54.9736 202.503 59.7641 192.502 59.7641C181.829 59.7641 175.61 54.469 175.945 45.5617H184.686L184.688 45.6456Z" fill="#1A2268"/>
<path d="M218.387 31.1064H209.983V58.924H218.387V31.1064Z" fill="#1A2268"/>
<path d="M229.229 21.3576H220.825V58.924H229.229V21.3576Z" fill="#1A2268"/>
<path d="M246.123 30.3501C255.704 30.3501 260.835 36.5692 260.835 45.141C260.835 53.4611 255.709 59.5963 245.96 59.5963C237.298 59.5963 231.842 53.4611 231.842 45.141C231.842 36.6531 237.052 30.3501 246.129 30.3501H246.123ZM246.297 53.0376C250.667 53.0376 252.432 49.5918 252.432 45.1382C252.432 41.4408 251.172 36.9858 246.55 36.9858C242.348 36.9858 240.5 40.2638 240.5 44.9691C240.416 48.5826 241.677 53.0376 246.299 53.0376" fill="#1A2268"/>
<path d="M263.266 40.4344C263.603 35.7277 265.367 33.7106 267.804 32.282C270.549 30.9432 273.575 30.2804 276.628 30.3487C279.402 30.3487 288.728 30.4326 288.728 38.5011V51.9472C288.728 54.2999 288.812 57.2424 290.157 59.0065H281.251C281.015 58.3818 280.846 57.7337 280.746 57.0732C279.15 58.6696 275.788 59.7627 271.671 59.7627C266.125 59.6789 262.511 56.8216 262.511 51.191C262.511 42.3662 270.999 43.0386 277.723 41.7777C279.572 41.4422 280.328 41.1054 280.328 39.3412C280.328 36.9886 277.976 36.484 276.126 36.5679C272.513 36.7356 272.008 38.1642 271.757 40.6021H263.266V40.4344ZM274.954 53.6344C279.239 53.6344 280.591 51.2817 280.416 46.3235C279.912 46.8281 274.954 47.4166 274.954 47.4166C272.685 47.8374 271.087 48.6775 271.087 50.6946C271.003 53.1325 272.936 53.6357 274.954 53.6357" fill="#1A2268"/>
<path d="M292.175 31.1063H300.159V33.7958H300.243C301.223 32.6269 302.464 31.7057 303.867 31.1069C305.27 30.5082 306.795 30.2489 308.317 30.3501C309.829 30.3501 314.452 30.9386 315.879 34.3005C316.839 32.9925 318.11 31.9458 319.578 31.2557C321.046 30.5657 322.664 30.2543 324.283 30.3501C332.519 30.3501 334.283 36.2323 334.2 40.0988V58.924H325.712V41.7791C325.712 38.3333 324.115 37.3255 321.845 37.3255C318.148 37.3255 317.643 40.1827 317.392 42.8722V59.0078H308.904V42.116C308.904 38.5863 307.643 37.3255 305.206 37.3255C301.928 37.3255 300.753 39.8472 300.584 42.1998V58.924H292.092V31.1063H292.175Z" fill="#1A2268"/>
<path d="M218.389 25.3066C218.381 26.4631 217.918 27.5699 217.1 28.3877C216.282 29.2055 215.176 29.6684 214.019 29.6763C213.444 29.6804 212.874 29.5701 212.342 29.3519C211.81 29.1338 211.326 28.8121 210.92 28.4055C210.513 27.999 210.191 27.5157 209.973 26.9837C209.755 26.4517 209.644 25.8816 209.648 25.3066C209.644 24.7317 209.755 24.1617 209.973 23.6298C210.191 23.0979 210.513 22.6147 210.919 22.2081C211.326 21.8016 211.809 21.4799 212.341 21.2616C212.873 21.0434 213.443 20.933 214.018 20.9368C215.17 20.9573 216.27 21.4243 217.085 22.2394C217.9 23.0545 218.367 24.1541 218.387 25.3066" fill="#1A2268"/>
<path d="M99.0499 20.853H108.378L118.799 50.4347H118.883L129.052 20.853H138.296V58.6655H131.993V29.4247H131.912L121.407 58.5871H115.942L105.437 29.4247H105.353V58.5871H99.0499V20.853Z" fill="#4D9B35"/>
<path d="M141.154 31.2741H147.794L154.944 51.6956H155.027L161.996 31.2741H168.299L157.626 60.0996C157.122 61.3604 156.618 62.5361 156.198 63.6292C155.71 64.693 155.118 65.7063 154.432 66.6542C153.717 67.5264 152.83 68.2417 151.826 68.7552C150.584 69.3042 149.233 69.5628 147.876 69.5115C146.468 69.5251 145.062 69.4128 143.674 69.176V64.1366C144.179 64.2204 144.682 64.3043 145.103 64.3882C145.572 64.4904 146.051 64.5465 146.531 64.556C147.132 64.567 147.73 64.4811 148.304 64.3016C148.744 64.1358 149.144 63.8776 149.476 63.5444C149.808 63.2111 150.065 62.8106 150.229 62.3697C150.489 61.8633 150.686 61.3273 150.817 60.7733L151.49 58.6723L141.154 31.2741Z" fill="#4D9B35"/>
<path d="M97.8169 105.888V88.4333H109.374V91.4759H101.507V95.635H108.607V98.6776H101.507V105.888H97.8169ZM117.376 105.888V88.4333H124.262C125.581 88.4333 126.706 88.6691 127.637 89.1407C128.575 89.6066 129.288 90.2685 129.777 91.1265C130.271 91.9788 130.518 92.9816 130.518 94.135C130.518 95.2941 130.268 96.2913 129.768 97.1265C129.268 97.956 128.544 98.5924 127.595 99.0356C126.652 99.4788 125.509 99.7003 124.169 99.7003H119.558V96.7344H123.572C124.277 96.7344 124.862 96.6378 125.328 96.4447C125.794 96.2515 126.14 95.9617 126.367 95.5753C126.6 95.189 126.717 94.7089 126.717 94.135C126.717 93.5555 126.6 93.0668 126.367 92.6691C126.14 92.2714 125.791 91.9702 125.319 91.7657C124.853 91.5555 124.265 91.4503 123.555 91.4503H121.066V105.888H117.376ZM126.802 97.9447L131.14 105.888H127.066L122.822 97.9447H126.802ZM154.686 97.1606C154.686 99.064 154.325 100.683 153.603 102.019C152.887 103.354 151.91 104.374 150.672 105.078C149.439 105.777 148.052 106.126 146.512 106.126C144.961 106.126 143.569 105.774 142.336 105.07C141.103 104.365 140.129 103.345 139.413 102.01C138.697 100.675 138.339 99.0583 138.339 97.1606C138.339 95.2572 138.697 93.6378 139.413 92.3026C140.129 90.9674 141.103 89.9503 142.336 89.2515C143.569 88.5469 144.961 88.1947 146.512 88.1947C148.052 88.1947 149.439 88.5469 150.672 89.2515C151.91 89.9503 152.887 90.9674 153.603 92.3026C154.325 93.6378 154.686 95.2572 154.686 97.1606ZM150.944 97.1606C150.944 95.9276 150.76 94.8878 150.39 94.0413C150.027 93.1947 149.512 92.5526 148.848 92.1151C148.183 91.6776 147.404 91.4589 146.512 91.4589C145.62 91.4589 144.842 91.6776 144.177 92.1151C143.512 92.5526 142.995 93.1947 142.626 94.0413C142.262 94.8878 142.081 95.9276 142.081 97.1606C142.081 98.3935 142.262 99.4333 142.626 100.28C142.995 101.126 143.512 101.769 144.177 102.206C144.842 102.644 145.62 102.862 146.512 102.862C147.404 102.862 148.183 102.644 148.848 102.206C149.512 101.769 150.027 101.126 150.39 100.28C150.76 99.4333 150.944 98.3935 150.944 97.1606ZM177.539 88.4333V105.888H174.351L166.758 94.9021H166.63V105.888H162.939V88.4333H166.178L173.712 99.4106H173.866V88.4333H177.539ZM185.443 91.4759V88.4333H199.778V91.4759H194.435V105.888H190.787V91.4759H185.443ZM234.774 97.1606C234.774 99.064 234.413 100.683 233.691 102.019C232.975 103.354 231.998 104.374 230.759 105.078C229.526 105.777 228.14 106.126 226.6 106.126C225.049 106.126 223.657 105.774 222.424 105.07C221.191 104.365 220.217 103.345 219.501 102.01C218.785 100.675 218.427 99.0583 218.427 97.1606C218.427 95.2572 218.785 93.6378 219.501 92.3026C220.217 90.9674 221.191 89.9503 222.424 89.2515C223.657 88.5469 225.049 88.1947 226.6 88.1947C228.14 88.1947 229.526 88.5469 230.759 89.2515C231.998 89.9503 232.975 90.9674 233.691 92.3026C234.413 93.6378 234.774 95.2572 234.774 97.1606ZM231.032 97.1606C231.032 95.9276 230.847 94.8878 230.478 94.0413C230.114 93.1947 229.6 92.5526 228.935 92.1151C228.271 91.6776 227.492 91.4589 226.6 91.4589C225.708 91.4589 224.93 91.6776 224.265 92.1151C223.6 92.5526 223.083 93.1947 222.714 94.0413C222.35 94.8878 222.168 95.9276 222.168 97.1606C222.168 98.3935 222.35 99.4333 222.714 100.28C223.083 101.126 223.6 101.769 224.265 102.206C224.93 102.644 225.708 102.862 226.6 102.862C227.492 102.862 228.271 102.644 228.935 102.206C229.6 101.769 230.114 101.126 230.478 100.28C230.847 99.4333 231.032 98.3935 231.032 97.1606ZM243.027 105.888V88.4333H254.584V91.4759H246.718V95.635H253.817V98.6776H246.718V105.888H243.027ZM262.586 105.888V88.4333H274.143V91.4759H266.277V95.635H273.376V98.6776H266.277V105.888H262.586ZM285.836 88.4333V105.888H282.145V88.4333H285.836ZM309.792 94.5441H306.06C305.991 94.0611 305.852 93.6322 305.642 93.2572C305.432 92.8765 305.162 92.5526 304.832 92.2856C304.503 92.0185 304.122 91.814 303.69 91.6719C303.264 91.5299 302.801 91.4589 302.301 91.4589C301.398 91.4589 300.611 91.6833 299.94 92.1322C299.27 92.5753 298.75 93.2231 298.381 94.0753C298.011 94.9219 297.827 95.9503 297.827 97.1606C297.827 98.4049 298.011 99.4503 298.381 100.297C298.756 101.144 299.278 101.783 299.949 102.215C300.619 102.646 301.395 102.862 302.275 102.862C302.77 102.862 303.227 102.797 303.648 102.666C304.074 102.536 304.452 102.345 304.781 102.095C305.111 101.84 305.383 101.53 305.599 101.166C305.821 100.803 305.974 100.388 306.06 99.9219L309.792 99.939C309.696 100.74 309.454 101.513 309.068 102.257C308.687 102.996 308.173 103.658 307.525 104.243C306.883 104.823 306.116 105.283 305.224 105.624C304.338 105.959 303.335 106.126 302.216 106.126C300.659 106.126 299.267 105.774 298.04 105.07C296.818 104.365 295.852 103.345 295.142 102.01C294.437 100.675 294.085 99.0583 294.085 97.1606C294.085 95.2572 294.443 93.6378 295.159 92.3026C295.875 90.9674 296.846 89.9503 298.074 89.2515C299.301 88.5469 300.682 88.1947 302.216 88.1947C303.227 88.1947 304.165 88.3367 305.028 88.6208C305.898 88.9049 306.667 89.3197 307.338 89.8651C308.008 90.4049 308.554 91.0668 308.974 91.8509C309.4 92.635 309.673 93.5327 309.792 94.5441ZM317.959 105.888V88.4333H329.72V91.4759H321.649V95.635H329.115V98.6776H321.649V102.845H329.754V105.888H317.959ZM349.249 105.888V88.4333H356.135C357.453 88.4333 358.578 88.6691 359.51 89.1407C360.448 89.6066 361.161 90.2685 361.649 91.1265C362.144 91.9788 362.391 92.9816 362.391 94.135C362.391 95.2941 362.141 96.2913 361.641 97.1265C361.141 97.956 360.416 98.5924 359.468 99.0356C358.524 99.4788 357.382 99.7003 356.041 99.7003H351.431V96.7344H355.445C356.149 96.7344 356.735 96.6378 357.2 96.4447C357.666 96.2515 358.013 95.9617 358.24 95.5753C358.473 95.189 358.59 94.7089 358.59 94.135C358.59 93.5555 358.473 93.0668 358.24 92.6691C358.013 92.2714 357.664 91.9702 357.192 91.7657C356.726 91.5555 356.138 91.4503 355.428 91.4503H352.939V105.888H349.249ZM358.675 97.9447L363.013 105.888H358.939L354.695 97.9447H358.675ZM373.527 105.888H369.573L375.598 88.4333H380.354L386.371 105.888H382.417L378.044 92.4219H377.908L373.527 105.888ZM373.28 99.0271H382.621V101.908H373.28V99.0271ZM400.179 105.888H393.992V88.4333H400.231C401.986 88.4333 403.498 88.7827 404.765 89.4816C406.032 90.1748 407.006 91.1719 407.688 92.4731C408.375 93.7742 408.719 95.331 408.719 97.1435C408.719 98.9617 408.375 100.524 407.688 101.831C407.006 103.138 406.026 104.141 404.748 104.84C403.475 105.538 401.952 105.888 400.179 105.888ZM397.682 102.726H400.026C401.117 102.726 402.035 102.533 402.779 102.146C403.529 101.754 404.091 101.149 404.466 100.331C404.847 99.5072 405.037 98.4447 405.037 97.1435C405.037 95.8538 404.847 94.7998 404.466 93.9816C404.091 93.1634 403.532 92.5611 402.787 92.1748C402.043 91.7884 401.125 91.5952 400.035 91.5952H397.682V102.726ZM420.663 88.4333V105.888H416.973V88.4333H420.663ZM445.259 97.1606C445.259 99.064 444.898 100.683 444.177 102.019C443.461 103.354 442.484 104.374 441.245 105.078C440.012 105.777 438.626 106.126 437.086 106.126C435.535 106.126 434.143 105.774 432.91 105.07C431.677 104.365 430.702 103.345 429.986 102.01C429.271 100.675 428.913 99.0583 428.913 97.1606C428.913 95.2572 429.271 93.6378 429.986 92.3026C430.702 90.9674 431.677 89.9503 432.91 89.2515C434.143 88.5469 435.535 88.1947 437.086 88.1947C438.626 88.1947 440.012 88.5469 441.245 89.2515C442.484 89.9503 443.461 90.9674 444.177 92.3026C444.898 93.6378 445.259 95.2572 445.259 97.1606ZM441.518 97.1606C441.518 95.9276 441.333 94.8878 440.964 94.0413C440.6 93.1947 440.086 92.5526 439.421 92.1151C438.756 91.6776 437.978 91.4589 437.086 91.4589C436.194 91.4589 435.415 91.6776 434.751 92.1151C434.086 92.5526 433.569 93.1947 433.2 94.0413C432.836 94.8878 432.654 95.9276 432.654 97.1606C432.654 98.3935 432.836 99.4333 433.2 100.28C433.569 101.126 434.086 101.769 434.751 102.206C435.415 102.644 436.194 102.862 437.086 102.862C437.978 102.862 438.756 102.644 439.421 102.206C440.086 101.769 440.6 101.126 440.964 100.28C441.333 99.4333 441.518 98.3935 441.518 97.1606ZM453.513 105.888V88.4333H457.203V102.845H464.686V105.888H453.513ZM488.01 97.1606C488.01 99.064 487.649 100.683 486.928 102.019C486.212 103.354 485.235 104.374 483.996 105.078C482.763 105.777 481.377 106.126 479.837 106.126C478.286 106.126 476.894 105.774 475.661 105.07C474.428 104.365 473.453 103.345 472.737 102.01C472.021 100.675 471.664 99.0583 471.664 97.1606C471.664 95.2572 472.021 93.6378 472.737 92.3026C473.453 90.9674 474.428 89.9503 475.661 89.2515C476.894 88.5469 478.286 88.1947 479.837 88.1947C481.377 88.1947 482.763 88.5469 483.996 89.2515C485.235 89.9503 486.212 90.9674 486.928 92.3026C487.649 93.6378 488.01 95.2572 488.01 97.1606ZM484.269 97.1606C484.269 95.9276 484.084 94.8878 483.715 94.0413C483.351 93.1947 482.837 92.5526 482.172 92.1151C481.507 91.6776 480.729 91.4589 479.837 91.4589C478.945 91.4589 478.166 91.6776 477.502 92.1151C476.837 92.5526 476.32 93.1947 475.95 94.0413C475.587 94.8878 475.405 95.9276 475.405 97.1606C475.405 98.3935 475.587 99.4333 475.95 100.28C476.32 101.126 476.837 101.769 477.502 102.206C478.166 102.644 478.945 102.862 479.837 102.862C480.729 102.862 481.507 102.644 482.172 102.206C482.837 101.769 483.351 101.126 483.715 100.28C484.084 99.4333 484.269 98.3935 484.269 97.1606ZM507.838 94.0753C507.718 93.6606 507.551 93.2941 507.335 92.9759C507.119 92.6521 506.855 92.3793 506.542 92.1577C506.235 91.9305 505.883 91.7572 505.485 91.6378C505.093 91.5185 504.659 91.4589 504.181 91.4589C503.289 91.4589 502.505 91.6805 501.829 92.1236C501.159 92.5668 500.636 93.2117 500.261 94.0583C499.886 94.8992 499.698 95.9276 499.698 97.1435C499.698 98.3594 499.883 99.3935 500.252 100.246C500.622 101.098 501.144 101.749 501.821 102.198C502.497 102.641 503.295 102.862 504.215 102.862C505.051 102.862 505.764 102.715 506.355 102.419C506.951 102.118 507.406 101.695 507.718 101.149C508.037 100.604 508.196 99.9589 508.196 99.2146L508.946 99.3253H504.446V96.5469H511.75V98.7458C511.75 100.28 511.426 101.598 510.778 102.7C510.13 103.797 509.238 104.644 508.102 105.24C506.965 105.831 505.664 106.126 504.198 106.126C502.562 106.126 501.125 105.766 499.886 105.044C498.647 104.317 497.681 103.286 496.988 101.95C496.301 100.609 495.957 99.0185 495.957 97.1776C495.957 95.7628 496.162 94.5015 496.571 93.3935C496.985 92.2799 497.565 91.3367 498.309 90.564C499.054 89.7913 499.92 89.2032 500.909 88.7998C501.897 88.3964 502.968 88.1947 504.122 88.1947C505.11 88.1947 506.031 88.3396 506.883 88.6293C507.735 88.9134 508.491 89.3168 509.15 89.8396C509.815 90.3623 510.358 90.9844 510.778 91.706C511.198 92.4219 511.468 93.2117 511.588 94.0753H507.838ZM518.316 88.4333H522.449L526.429 95.9503H526.6L530.58 88.4333H534.713L528.347 99.7174V105.888H524.682V99.7174L518.316 88.4333Z" fill="black"/>
<defs>
<linearGradient id="paint0_linear_2294_63151" x1="15.0523" y1="62.3483" x2="54.1788" y2="62.3483" gradientUnits="userSpaceOnUse">
<stop stop-color="#0F206C"/>
<stop offset="0.473" stop-color="#1D3C60"/>
<stop offset="1" stop-color="#4D9B35"/>
</linearGradient>
</defs>
</svg>
