<svg id="Layer_1" data-name="Layer 1" xmlns="http://www.w3.org/2000/svg" viewBox="0 0 40 40"><defs><style>.cls-1{fill:#1172f7;}.cls-2{fill:#231f20;}.cls-3{fill:#fff;}</style></defs><title>Artboard 8</title><path class="cls-1" d="M34.49,13.85v10.5a2.25,2.25,0,0,1-2.25,2.25H12.74a2.24,2.24,0,0,1-2.25-2.25V10.85A2.25,2.25,0,0,1,12.74,8.6h7.5l3,3h9A2.25,2.25,0,0,1,34.49,13.85Z"/><path class="cls-2" d="M31.51,16.9V27.4a2.25,2.25,0,0,1-2.25,2.25H9.76A2.25,2.25,0,0,1,7.51,27.4V13.9a2.25,2.25,0,0,1,2.25-2.25h7.5l3,3h9A2.24,2.24,0,0,1,31.51,16.9Z"/><path class="cls-3" d="M17.71,26.1a1.24,1.24,0,0,1-.88-.36l-3-3A1.25,1.25,0,1,1,15.59,21l2.12,2.12L22.83,18a1.25,1.25,0,1,1,1.76,1.77l-6,6A1.24,1.24,0,0,1,17.71,26.1Z"/></svg>