<svg id="Layer_1" data-name="Layer 1" xmlns="http://www.w3.org/2000/svg" viewBox="0 0 40 40"><defs><style>.cls-1{fill:#231f20;}.cls-2{fill:#2aaf4a;}.cls-3{fill:#fff;}</style></defs><title>Mobile_verified</title><path class="cls-1" d="M26.81,5H13a2,2,0,0,0-2,2V32.81A2.2,2.2,0,0,0,13.2,35H26.81A2.19,2.19,0,0,0,29,32.81V7.19A2.19,2.19,0,0,0,26.81,5ZM26,28.77a.22.22,0,0,1-.22.23H14.23a.23.23,0,0,1-.23-.23V11.23a.23.23,0,0,1,.23-.23H25.78a.22.22,0,0,1,.22.23Z"/><circle class="cls-2" cx="28.98" cy="25.97" r="7.5"/><path class="cls-3" d="M27.73,29.5a1,1,0,0,1-.71-.29l-2.5-2.5a1,1,0,0,1,1.42-1.42l1.79,1.8L32,22.79a1,1,0,1,1,1.42,1.42l-5,5A1,1,0,0,1,27.73,29.5Z"/></svg>