<svg id="Layer_1" data-name="Layer 1" xmlns="http://www.w3.org/2000/svg" viewBox="0 0 40 40"><defs><style>.cls-1{fill:#231f20;}.cls-2{fill:#1172f7;}.cls-3{fill:#fff;}</style></defs><title>Mobile_linked_MR</title><path class="cls-1" d="M26.81,5H13a2,2,0,0,0-2,2V32.81A2.2,2.2,0,0,0,13.2,35H26.81A2.19,2.19,0,0,0,29,32.81V7.19A2.19,2.19,0,0,0,26.81,5ZM26,28.77a.22.22,0,0,1-.22.23H14.23a.23.23,0,0,1-.23-.23V11.23a.23.23,0,0,1,.23-.23H25.78a.22.22,0,0,1,.22.23Z"/><circle class="cls-2" cx="28.98" cy="25.97" r="7.5"/><path class="cls-3" d="M30.37,28.78h0L29.05,30.1a3,3,0,0,1-4.2-4.2l.72-.72a.32.32,0,0,1,.54.21,3.4,3.4,0,0,0,.19,1,.32.32,0,0,1-.08.32L26,27a1.4,1.4,0,1,0,2,2l1.31-1.31a1.4,1.4,0,0,0,0-2,1,1,0,0,0-.2-.17.34.34,0,0,1-.13-.25.75.75,0,0,1,.23-.58l.41-.41a.3.3,0,0,1,.4,0,3.19,3.19,0,0,1,.4.33A3,3,0,0,1,30.37,28.78ZM33.11,26l-.72.72a.32.32,0,0,1-.54-.2,3.59,3.59,0,0,0-.18-1,.31.31,0,0,1,.07-.33L32,25a1.41,1.41,0,1,0-2-2l-1.31,1.32a1.41,1.41,0,0,0,0,2,1.27,1.27,0,0,0,.2.16.34.34,0,0,1,.13.25.76.76,0,0,1-.22.58l-.42.41a.32.32,0,0,1-.4,0,4.47,4.47,0,0,1-.4-.34,3,3,0,0,1,0-4.19h0l1.31-1.31a3,3,0,0,1,4.2,4.2Z"/></svg>