<svg width="14" height="16" viewBox="0 0 14 16" fill="none" xmlns="http://www.w3.org/2000/svg">
<path d="M5.125 12.2188C5.125 12.4824 4.89062 12.6875 4.65625 12.6875C4.39258 12.6875 4.1875 12.4824 4.1875 12.2188V6.125C4.1875 5.89062 4.39258 5.65625 4.65625 5.65625C4.89062 5.65625 5.125 5.89062 5.125 6.125V12.2188ZM7.46875 12.2188C7.46875 12.4824 7.23438 12.6875 7 12.6875C6.73633 12.6875 6.53125 12.4824 6.53125 12.2188V6.125C6.53125 5.89062 6.73633 5.65625 7 5.65625C7.23438 5.65625 7.46875 5.89062 7.46875 6.125V12.2188ZM9.8125 12.2188C9.8125 12.4824 9.57812 12.6875 9.34375 12.6875C9.08008 12.6875 8.875 12.4824 8.875 12.2188V6.125C8.875 5.89062 9.08008 5.65625 9.34375 5.65625C9.57812 5.65625 9.8125 5.89062 9.8125 6.125V12.2188ZM9.72461 1.23242L10.8086 2.84375H12.8594C13.2402 2.84375 13.5625 3.16602 13.5625 3.54688C13.5625 3.95703 13.2402 4.25 12.8594 4.25H12.625V13.1562C12.625 14.4746 11.5703 15.5 10.2812 15.5H3.71875C2.40039 15.5 1.375 14.4746 1.375 13.1562V4.25H1.14062C0.730469 4.25 0.4375 3.95703 0.4375 3.54688C0.4375 3.16602 0.730469 2.84375 1.14062 2.84375H3.16211L4.24609 1.23242C4.53906 0.792969 5.06641 0.5 5.62305 0.5H8.34766C8.9043 0.5 9.43164 0.792969 9.72461 1.23242ZM4.86133 2.84375H9.10938L8.55273 2.02344C8.52344 1.96484 8.43555 1.90625 8.34766 1.90625H5.62305C5.53516 1.90625 5.44727 1.96484 5.41797 2.02344L4.86133 2.84375ZM2.78125 13.1562C2.78125 13.6836 3.19141 14.0938 3.71875 14.0938H10.2812C10.7793 14.0938 11.2188 13.6836 11.2188 13.1562V4.25H2.78125V13.1562Z" fill="#222F3E" fill-opacity="0.38"/>
</svg>
