<svg width="20" height="16" viewBox="0 0 20 16" fill="none" xmlns="http://www.w3.org/2000/svg">
<path d="M8.56745 9.5H5.40938C2.40764 9.5 0 11.9375 0 14.9375C0 15.5312 0.469021 16 1.06311 16H12.9137C13.5078 16 14.0081 15.5312 14.0081 14.9375C14.0081 11.9375 11.5692 9.5 8.56745 9.5ZM7.00405 8C9.19282 8 11.0064 6.21875 11.0064 4C11.0064 1.8125 9.19282 0 7.00405 0C4.78402 0 3.00174 1.8125 3.00174 4C3.00174 6.21875 4.78402 8 7.00405 8ZM19.7614 4.21875C19.4487 3.9375 18.9797 3.9375 18.6983 4.25L15.978 7.1875L14.7585 6C14.4771 5.6875 14.0081 5.6875 13.7267 6C13.414 6.28125 13.414 6.75 13.7267 7.03125L15.4777 8.78125C15.6028 8.9375 15.7904 9 16.0093 9C16.1969 9 16.4157 8.9375 16.5408 8.78125L19.7927 5.28125C20.0741 4.96875 20.0741 4.5 19.7614 4.21875Z" fill="#341F97"/>
</svg>
