<svg id="Layer_1" data-name="Layer 1" xmlns="http://www.w3.org/2000/svg" viewBox="0 0 40 40"><defs><style>.cls-1{fill:#231f20;}</style></defs><title>Upload</title><path class="cls-1" d="M22.92,15H30V32.08a1.25,1.25,0,0,1-1.25,1.25H11.25A1.25,1.25,0,0,1,10,32.08V7.92a1.25,1.25,0,0,1,1.25-1.25H21.67v7.08A1.25,1.25,0,0,0,22.92,15Zm2.73,8.58-5-5a.91.91,0,0,0-1.26,0l-5,5A.83.83,0,0,0,14.94,25h3.39v4.17a.84.84,0,0,0,.84.83h1.66a.84.84,0,0,0,.84-.83V25h3.39A.83.83,0,0,0,25.65,23.58ZM30,12.41v.28H24v-6h.29a1.14,1.14,0,0,1,.8.33l4.61,4.61A1.14,1.14,0,0,1,30,12.41Z"/></svg>