<?xml version="1.0"?>
<svg xmlns="http://www.w3.org/2000/svg" viewBox="0 0 64 64" width="512" height="512"><g id="Solid"><path d="M46,34a2.97,2.97,0,0,0-2.584,2H38.742a12.865,12.865,0,0,0-1.089-3.591L34.012,34.23l-5.891,5.891a3,3,0,1,1-4.243-4.242l5.892-5.891,1.864-3.729A12.855,12.855,0,0,0,28,25.083v-4.5A2.97,2.97,0,0,0,30,18c0-1.657-1.791-3-4-3s-4,1.343-4,3a2.97,2.97,0,0,0,2,2.584v4.467a12.912,12.912,0,0,0-5.759,2.362L15.1,24.271a2.971,2.971,0,0,0-.413-3.242c-1.171-1.171-3.387-.855-4.949.708s-1.879,3.778-.708,4.949a2.971,2.971,0,0,0,3.242.413l3.142,3.142A12.912,12.912,0,0,0,13.051,36H8.584A2.97,2.97,0,0,0,6,34c-1.657,0-3,1.791-3,4s1.343,4,3,4a2.97,2.97,0,0,0,2.584-2h4.5A12.9,12.9,0,0,0,15.5,45.67L12.271,48.9a2.971,2.971,0,0,0-3.242.413c-1.171,1.171-.855,3.387.708,4.949s3.778,1.879,4.949.708a2.971,2.971,0,0,0,.413-3.242l3.261-3.26A12.907,12.907,0,0,0,24,50.742v4.674A2.97,2.97,0,0,0,22,58c0,1.657,1.791,3,4,3s4-1.343,4-3a2.97,2.97,0,0,0-2-2.584V50.71a12.917,12.917,0,0,0,5.552-2.33L36.9,51.729a2.971,2.971,0,0,0,.413,3.242c1.171,1.171,3.387.855,4.949-.708s1.879-3.778.708-4.949a2.971,2.971,0,0,0-3.242-.413L36.38,45.552A12.917,12.917,0,0,0,38.71,40h4.706A2.97,2.97,0,0,0,46,42c1.657,0,3-1.791,3-4S47.657,34,46,34ZM18,34a2,2,0,1,1,2,2A2,2,0,0,1,18,34Zm8,13c-2.761,0-5-.9-5-2s2.239-2,5-2,5,.9,5,2S28.761,47,26,47Z"/><path d="M60.707,11.293l-8-8a1,1,0,0,0-1.414,1.414l2,2-3.586,3.586-2-2a1,1,0,0,0-1.414,1.414l1,1L33,25l1,1-2,4,.293.293-7,7a1,1,0,0,0,1.415,1.414l7-7L34,32l4-2,1,1L53.293,16.707l1,1a1,1,0,0,0,1.414-1.414l-2-2,3.586-3.586,2,2a1,1,0,0,0,1.414-1.414ZM38.75,24.71a1.024,1.024,0,0,1-.71.29,1.042,1.042,0,0,1-.71-.29l-1.24-1.24a1.063,1.063,0,0,1-.09-.11l1.4-1.4a1.063,1.063,0,0,1,.11.09l1.24,1.24A1.008,1.008,0,0,1,38.75,24.71Zm2.9-2.9a1,1,0,0,1-1.41,0l-1.25-1.25a.9.9,0,0,1-.09-.1l1.4-1.4a.481.481,0,0,1,.11.09l1.24,1.24A1.008,1.008,0,0,1,41.65,21.81Zm2.9-2.9a1,1,0,0,1-1.41,0l-1.25-1.25a.9.9,0,0,1-.09-.1l1.4-1.4a.481.481,0,0,1,.11.09l1.24,1.24A1.008,1.008,0,0,1,44.55,18.91ZM47.45,16a.978.978,0,0,1-1.41,0L44.8,14.76a.481.481,0,0,1-.09-.11l1.39-1.39a.481.481,0,0,1,.11.09l1.24,1.24A1,1,0,0,1,47.45,16Z"/></g></svg>
